<?xml version="1.0" encoding="utf-8"?>
<!-- Generator: Adobe Illustrator 17.1.0, SVG Export Plug-In . SVG Version: 6.00 Build 0)  -->
<!DOCTYPE svg PUBLIC "-//W3C//DTD SVG 1.1//EN" "http://www.w3.org/Graphics/SVG/1.1/DTD/svg11.dtd">
<svg version="1.1" id="Layer_1" xmlns="http://www.w3.org/2000/svg" xmlns:xlink="http://www.w3.org/1999/xlink" x="0px" y="0px"
	 viewBox="0 0 163.3 163.3" enable-background="new 0 0 163.3 163.3" xml:space="preserve">
<g id="Layer_2_9_">
	<g>
		<g>
			<path fill="#80C142" d="M81.7,11.2c31.7,0,60.4,21.5,68.3,53.6c9.3,37.8-13.8,75.9-51.5,85.2c-5.7,1.4-11.3,2.1-16.9,2.1
				c-31.7,0-60.4-21.5-68.3-53.6C4,60.7,27,22.6,64.8,13.3C70.5,11.9,76.1,11.2,81.7,11.2 M81.7,8.7L81.7,8.7
				c-5.9,0-11.8,0.7-17.5,2.1c-18.9,4.7-34.9,16.4-45,33.1C9.2,60.6,6.2,80.2,10.8,99.1c4,16.2,13,30.1,26.2,40.2
				c12.7,9.9,28.6,15.3,44.6,15.3c5.9,0,11.8-0.7,17.5-2.1c39-9.6,63-49.2,53.4-88.3c-4-16.2-13-30.1-26.2-40.2
				C113.6,14.1,97.7,8.7,81.7,8.7L81.7,8.7z"/>
		</g>
		<g>
			<path fill="#80C142" d="M81.7,5c34.4,0,65.7,23.4,74.3,58.3c10.1,41.1-15,82.6-56.1,92.7c-6.2,1.5-12.3,2.2-18.4,2.2
				c-34.4,0-65.7-23.4-74.3-58.3c-10.1-41.1,15-82.6,56.1-92.7C69.5,5.7,75.6,5,81.7,5 M81.7,0L81.7,0c-6.6,0-13.2,0.8-19.6,2.4
				C18.4,13.2-8.4,57.5,2.4,101.2c4.5,18.1,14.6,33.7,29.3,45c14.3,11,32,17.1,49.9,17.1c6.6,0,13.2-0.8,19.6-2.4
				c21.2-5.2,39-18.4,50.3-37s14.6-40.6,9.4-61.8c-4.5-18.1-14.6-33.7-29.3-45C117.4,6.1,99.6,0,81.7,0L81.7,0z"/>
		</g>
		<g>
			<path fill="#80C142" d="M81.7,43.3c17.2,0,32.9,11.7,37.2,29.2c5.1,20.5-7.5,41.3-28,46.4c-3.1,0.8-6.2,1.1-9.2,1.1
				c-17.2,0-32.9-11.7-37.2-29.2c-5.1-20.5,7.5-41.3,28-46.4C75.6,43.7,78.6,43.3,81.7,43.3 M81.7,40.8L81.7,40.8
				c-3.3,0-6.6,0.4-9.8,1.2c-10.6,2.6-19.5,9.2-25.2,18.5S39.4,80.8,42,91.4c4.5,18.3,20.8,31.1,39.6,31.1c3.3,0,6.6-0.4,9.8-1.2
				c21.9-5.4,35.3-27.5,29.9-49.4C116.8,53.6,100.5,40.8,81.7,40.8L81.7,40.8z"/>
		</g>
		<g>
			<path fill="#80C142" d="M32.1,64.9l-0.5,1.7l-3.9,0c-0.1,0-0.4,0-0.8,0c-0.4,0-0.7-0.1-0.8-0.1c0.2,0.1,0.4,0.2,0.8,0.4
				c0.4,0.2,0.6,0.3,0.7,0.4l3.3,1.9l-0.5,1.7l-7.3-0.1l0.4-1.5l4,0.1c0.7,0,1.4,0.1,1.9,0.2c-0.2-0.1-0.4-0.2-0.8-0.4
				c-0.4-0.2-0.6-0.3-0.8-0.4l-3.6-2.1l0.4-1.4l4.1,0c0.2,0,0.5,0,0.8,0s0.7,0.1,1,0.1c-0.2-0.1-0.5-0.2-0.9-0.4s-0.6-0.3-0.8-0.4
				l-3.5-1.9l0.4-1.5L32.1,64.9z"/>
			<path fill="#80C142" d="M34.4,59.2L32.8,63l-6.5-2.8l1.6-3.8l1.1,0.5l-1,2.4l1.4,0.6l1-2.3l1.1,0.5l-1,2.3l1.7,0.7l1-2.4
				L34.4,59.2z"/>
			<path fill="#80C142" d="M32.6,48.2l0.8-1.3l4.6,5.9l-0.9,1.4l-7.3-1.8l0.8-1.3l4.3,1.1c0.3,0.1,0.5,0.2,0.9,0.3
				c0.3,0.1,0.5,0.2,0.7,0.2c-0.2-0.2-0.6-0.6-1.1-1.2L32.6,48.2z"/>
			<path fill="#80C142" d="M42.5,47l-1.6-0.7l-1.7,2l1,1.5l-1,1.3l-3.9-6.5l1.2-1.5l7.1,2.5L42.5,47z M39.6,45.8
				c-1.5-0.6-2.3-0.9-2.5-1c-0.2-0.1-0.3-0.1-0.5-0.2c0.2,0.3,0.8,1.2,1.8,2.7L39.6,45.8z"/>
			<path fill="#80C142" d="M43.9,45.4L39,40.3l1.1-1.1l4.1,4.2l2.1-2l0.9,0.9L43.9,45.4z"/>
			<path fill="#80C142" d="M48.1,32.6l2.8,3.7c0.3,0.4,0.5,0.9,0.5,1.3c0,0.5,0,0.9-0.3,1.4c-0.2,0.4-0.6,0.8-1.1,1.2
				c-0.7,0.6-1.5,0.8-2.2,0.8c-0.7-0.1-1.3-0.4-1.8-1.1l-2.8-3.6l1.2-0.9l2.6,3.5c0.3,0.4,0.7,0.7,1,0.8c0.3,0.1,0.7-0.1,1.1-0.4
				c0.4-0.3,0.6-0.6,0.6-1c0-0.3-0.1-0.7-0.5-1.2l-2.6-3.4L48.1,32.6z"/>
			<path fill="#80C142" d="M57,35.5l-3.6,2.1l-3.6-6.1l3.6-2.1l0.6,1.1l-2.3,1.3l0.8,1.3l2.1-1.2l0.6,1.1l-2.1,1.2l0.9,1.6l2.3-1.3
				L57,35.5z"/>
			<path fill="#80C142" d="M61.4,29l0.4-3.3l1.5-0.6L62.6,30l1,2.6l-1.4,0.5l-1-2.5l-3.8-3.2l1.6-0.6L61.4,29z"/>
			<path fill="#80C142" d="M71.7,26.5c0.3,1.1,0.2,2.1-0.2,2.8c-0.4,0.8-1.2,1.3-2.2,1.6c-1.1,0.3-2,0.2-2.7-0.3
				c-0.7-0.5-1.3-1.3-1.6-2.4c-0.3-1.1-0.2-2.1,0.2-2.8c0.4-0.8,1.2-1.3,2.2-1.6c1.1-0.3,2-0.2,2.7,0.3
				C70.9,24.6,71.4,25.4,71.7,26.5z M66.6,27.9c0.2,0.8,0.5,1.3,0.9,1.6c0.4,0.3,0.9,0.4,1.5,0.2c1.2-0.3,1.6-1.2,1.2-2.8
				c-0.4-1.5-1.2-2.2-2.4-1.9c-0.6,0.2-1,0.5-1.2,0.9C66.4,26.5,66.4,27.1,66.6,27.9z"/>
			<path fill="#80C142" d="M78.4,22.3l0.5,4.6c0.1,0.5,0,1-0.2,1.4c-0.2,0.4-0.5,0.8-0.9,1c-0.4,0.3-0.9,0.4-1.6,0.5
				c-0.9,0.1-1.7-0.1-2.2-0.5c-0.6-0.4-0.9-1-1-1.8l-0.5-4.5l1.5-0.2l0.5,4.3c0.1,0.5,0.2,0.9,0.5,1.2s0.6,0.3,1.2,0.3
				c0.5-0.1,0.8-0.2,1-0.5c0.2-0.3,0.3-0.7,0.2-1.2l-0.5-4.3L78.4,22.3z"/>
			<path fill="#80C142" d="M81.8,26.6l0,2.7l-1.5,0l0.1-7.1l2.1,0c1,0,1.7,0.2,2.2,0.6s0.7,0.9,0.7,1.6c0,0.4-0.1,0.8-0.4,1.1
				c-0.2,0.3-0.6,0.6-1,0.7c1.1,1.6,1.8,2.7,2.1,3.1l-1.7,0l-1.7-2.8L81.8,26.6z M81.8,25.4l0.5,0c0.5,0,0.8-0.1,1.1-0.2
				c0.2-0.2,0.4-0.4,0.4-0.7c0-0.3-0.1-0.6-0.3-0.7c-0.2-0.1-0.6-0.2-1.1-0.2l-0.5,0L81.8,25.4z"/>
			<path fill="#80C142" d="M95.3,26.1c-0.1,0.7-0.5,1.3-1.1,1.6C93.7,28,93,28,92.1,27.8l-0.6-0.1l-0.5,2.5l-1.5-0.3l1.4-7l2.3,0.4
				c0.9,0.2,1.5,0.5,1.9,0.9C95.3,24.8,95.4,25.3,95.3,26.1z M91.7,26.5l0.5,0.1c0.5,0.1,0.8,0.1,1.1-0.1s0.4-0.4,0.5-0.7
				c0.1-0.3,0-0.6-0.1-0.8c-0.2-0.2-0.4-0.3-0.9-0.4l-0.7-0.1L91.7,26.5z"/>
			<path fill="#80C142" d="M97.5,29l-0.8,2.6l-1.5-0.5l2.2-6.8l2,0.6c0.9,0.3,1.6,0.7,1.9,1.2c0.3,0.5,0.4,1.1,0.2,1.7
				c-0.1,0.4-0.4,0.7-0.7,1c-0.3,0.2-0.7,0.4-1.2,0.4c0.6,1.9,0.9,3,1.1,3.6l-1.6-0.5l-0.8-3.1L97.5,29z M97.9,27.8l0.5,0.2
				c0.5,0.1,0.8,0.2,1.1,0.1c0.3-0.1,0.5-0.3,0.6-0.6c0.1-0.3,0.1-0.6-0.1-0.8s-0.5-0.4-1-0.5L98.4,26L97.9,27.8z"/>
			<path fill="#80C142" d="M101.4,33.2l2.8-6.5l1.4,0.6l-2.8,6.5L101.4,33.2z"/>
			<path fill="#80C142" d="M111.3,30.2l1.4,0.7l-5.5,5.1l-1.5-0.8l1.2-7.4l1.4,0.7l-0.8,4.4c-0.1,0.3-0.1,0.5-0.2,0.9
				c-0.1,0.3-0.2,0.6-0.2,0.7c0.2-0.2,0.5-0.6,1.1-1.2L111.3,30.2z"/>
			<path fill="#80C142" d="M113.3,40l0.5-1.7l-2.2-1.5l-1.4,1.1l-1.4-1l6.2-4.4l1.5,1.1l-2,7.3L113.3,40z M114.2,37
				c0.5-1.5,0.8-2.4,0.8-2.6c0.1-0.2,0.1-0.4,0.2-0.5c-0.3,0.3-1.2,0.9-2.5,2L114.2,37z"/>
			<path fill="#80C142" d="M121.1,38.8c-0.4-0.4-0.9-0.5-1.4-0.4c-0.5,0.1-1,0.4-1.5,1c-1.1,1.2-1.1,2.2-0.2,3
				c0.4,0.3,0.9,0.7,1.6,1l-0.8,0.9c-0.6-0.2-1.2-0.6-1.7-1.1c-0.8-0.7-1.2-1.5-1.2-2.3c0-0.8,0.4-1.7,1.2-2.6
				c0.5-0.5,1-0.9,1.6-1.2c0.6-0.2,1.2-0.3,1.7-0.2c0.6,0.1,1.1,0.4,1.6,0.9c0.5,0.5,0.9,1.1,1.2,1.8l-1.2,0.6
				c-0.1-0.3-0.2-0.5-0.4-0.8C121.5,39.2,121.3,39,121.1,38.8z"/>
			<path fill="#80C142" d="M123.9,44.2l3.2-0.8l1.1,1.2l-4.8,1.1l-2.1,1.8l-1-1.1l2-1.8l1.7-4.7l1.1,1.2L123.9,44.2z"/>
		</g>
		<path fill="#80C142" d="M33.5,90.8l-1.2-5c0,0-1.7-6.9-7.5-5.5c-5.8,1.4-4.1,8.3-4.1,8.3l1.2,5l-2.4,0.6l-1.5-6
			c0,0-2.1-8.3,6.2-10.3c8.2-2,10.2,6.3,10.2,6.3l1.5,6L33.5,90.8z"/>
		<g>
			<g>
				<path fill="#80C142" d="M36,86.7l-18.4,4.5l4.2,17.1l18.4-4.5L36,86.7z M27.4,102l0.5-4.7c-1-0.1-1.9-0.8-2.1-1.9
					c-0.3-1.3,0.5-2.7,1.8-3c1.3-0.3,2.7,0.5,3,1.8c0.3,1-0.2,2.1-1,2.7l2.7,3.9L27.4,102z"/>
			</g>
		</g>
		<path fill="#80C142" d="M140.4,64.5l-1.2-5c0,0-1.7-6.9-7.5-5.5c-5.8,1.4-4.1,8.3-4.1,8.3l1.2,5l-2.4,0.6l-1.5-6
			c0,0-2.1-8.3,6.2-10.3c8.2-2,10.2,6.3,10.2,6.3l1.5,6L140.4,64.5z"/>
		<g>
			<g>
				<path fill="#80C142" d="M143.2,60.3l-18.7,4.6l4.3,17.3l18.7-4.6L143.2,60.3z M134.4,75.8l0.5-4.8c-1-0.1-1.9-0.8-2.2-1.9
					c-0.3-1.4,0.5-2.7,1.8-3c1.4-0.3,2.7,0.5,3,1.8c0.3,1.1-0.2,2.1-1,2.7l2.7,4L134.4,75.8z"/>
			</g>
		</g>
		<g>
			<path fill="#80C142" d="M64.3,71c0.3,1.3,0.1,2.4-0.6,3.3c-0.7,1-1.9,1.6-3.5,2c-1.5,0.4-2.9,0.4-4.2,0.1l-0.7-2.8
				c1.1,0.2,1.9,0.3,2.6,0.3c0.7,0,1.3-0.1,1.9-0.2c0.7-0.2,1.1-0.4,1.4-0.7c0.3-0.3,0.4-0.8,0.2-1.2c-0.1-0.3-0.2-0.5-0.4-0.7
				c-0.2-0.2-0.5-0.3-0.8-0.5c-0.3-0.1-1-0.3-2.1-0.5c-1-0.2-1.7-0.4-2.2-0.7c-0.5-0.3-1-0.6-1.3-1c-0.4-0.4-0.6-1-0.8-1.6
				c-0.3-1.2-0.1-2.3,0.5-3.2c0.7-0.9,1.7-1.6,3.2-1.9c0.7-0.2,1.4-0.3,2.2-0.3c0.7,0,1.5,0.1,2.3,0.2l-0.4,2.6
				C60.7,64,60,64,59.5,64c-0.5,0-1,0.1-1.5,0.2c-0.6,0.1-1,0.4-1.2,0.7c-0.2,0.3-0.3,0.7-0.2,1.1c0.1,0.3,0.2,0.5,0.4,0.6
				c0.2,0.2,0.4,0.3,0.7,0.4c0.3,0.1,1,0.3,2.1,0.5c1.5,0.3,2.5,0.7,3.2,1.2C63.6,69.3,64,70,64.3,71z"/>
			<path fill="#80C142" d="M76.4,72.1l-8.1,2L64.8,60l8.1-2l0.6,2.4l-5.1,1.3l0.8,3.1l4.8-1.2l0.6,2.4l-4.8,1.2l0.9,3.6l5.1-1.3
				L76.4,72.1z"/>
			<path fill="#80C142" d="M88.4,69.1l-1.8-3.1l-5.1,1.3l-0.2,3.6L78,71.7l1.5-15.3l3.6-0.9l8.5,12.9L88.4,69.1z M85.2,63.7
				c-1.7-2.8-2.6-4.4-2.9-4.8c-0.2-0.4-0.4-0.7-0.5-0.9c0,0.9-0.1,3.1-0.3,6.5L85.2,63.7z"/>
			<path fill="#80C142" d="M93.9,67.8l-3.5-14.1l3-0.7l2.9,11.6l5.7-1.4l0.6,2.5L93.9,67.8z"/>
		</g>
		<g>
			<path fill="#80C142" d="M62.3,107.8l-3,0.7L56.5,97l-3.8,0.9l-0.6-2.5l10.6-2.6l0.6,2.5l-3.8,0.9L62.3,107.8z"/>
			<path fill="#80C142" d="M70.5,100.1l1.3,5.4l-3,0.7l-3.5-14.1l4.1-1c1.9-0.5,3.4-0.5,4.5,0c1.1,0.5,1.8,1.4,2.2,2.8
				c0.2,0.8,0.2,1.6-0.1,2.4c-0.3,0.8-0.8,1.4-1.6,2c2.9,2.6,4.8,4.3,5.6,5.1l-3.3,0.8l-4.7-4.6L70.5,100.1z M69.9,97.7l1-0.2
				c0.9-0.2,1.6-0.6,2-1c0.4-0.4,0.5-1,0.3-1.6c-0.2-0.7-0.5-1.1-1-1.3c-0.5-0.2-1.3-0.1-2.2,0.1l-0.9,0.2L69.9,97.7z"/>
			<path fill="#80C142" d="M90.3,86l2.2,9.1c0.3,1,0.2,2,0,2.9c-0.3,0.9-0.8,1.7-1.6,2.3c-0.8,0.6-1.8,1.1-3,1.4
				c-1.8,0.4-3.3,0.3-4.6-0.4c-1.2-0.7-2-1.8-2.4-3.4l-2.2-9.1l3-0.7l2.1,8.6c0.3,1.1,0.7,1.8,1.2,2.2c0.6,0.4,1.3,0.5,2.4,0.2
				c1-0.2,1.6-0.7,1.9-1.3c0.3-0.6,0.3-1.5,0.1-2.6l-2.1-8.6L90.3,86z"/>
			<path fill="#80C142" d="M105,93.2c0.3,1.3,0.1,2.4-0.6,3.3c-0.7,1-1.9,1.6-3.5,2c-1.5,0.4-2.9,0.4-4.2,0.1L96,95.9
				c1.1,0.2,1.9,0.3,2.6,0.3c0.7,0,1.3-0.1,1.9-0.2c0.7-0.2,1.1-0.4,1.4-0.7c0.3-0.3,0.4-0.8,0.2-1.2c-0.1-0.3-0.2-0.5-0.4-0.7
				s-0.5-0.3-0.8-0.5c-0.3-0.1-1-0.3-2.1-0.5c-1-0.2-1.7-0.4-2.2-0.7c-0.5-0.3-1-0.6-1.3-1c-0.4-0.4-0.6-1-0.8-1.6
				c-0.3-1.2-0.1-2.3,0.5-3.2c0.7-0.9,1.7-1.6,3.2-1.9c0.7-0.2,1.4-0.3,2.2-0.3c0.7,0,1.5,0.1,2.3,0.2l-0.4,2.6
				c-0.8-0.1-1.5-0.2-2-0.2c-0.5,0-1,0.1-1.5,0.2c-0.6,0.1-1,0.4-1.2,0.7c-0.2,0.3-0.3,0.7-0.2,1.1c0.1,0.3,0.2,0.5,0.4,0.6
				c0.2,0.2,0.4,0.3,0.7,0.4c0.3,0.1,1,0.3,2.1,0.5c1.5,0.3,2.5,0.7,3.2,1.2C104.4,91.5,104.8,92.2,105,93.2z"/>
			<path fill="#80C142" d="M114.5,95l-3,0.7l-2.9-11.6l-3.8,0.9l-0.6-2.5l10.6-2.6l0.6,2.5l-3.8,0.9L114.5,95z"/>
		</g>
		<g>
			<path fill="#80C142" d="M81.9,80c0.3,1.1,0.2,2.1-0.2,2.9c-0.4,0.8-1.1,1.3-2.1,1.5c-1,0.3-1.9,0.1-2.6-0.4
				c-0.7-0.5-1.2-1.3-1.5-2.5c-0.3-1.1-0.2-2.1,0.2-2.9c0.4-0.8,1.1-1.3,2.2-1.5c1-0.2,1.9-0.1,2.6,0.4C81.1,78,81.6,78.9,81.9,80z
				 M76.3,81.4c0.2,1,0.6,1.6,1.1,2c0.5,0.4,1.2,0.5,1.9,0.3c0.8-0.2,1.3-0.6,1.6-1.2c0.3-0.6,0.3-1.4,0.1-2.3
				c-0.2-0.9-0.6-1.6-1.1-2c-0.5-0.4-1.2-0.5-1.9-0.3c-0.8,0.2-1.3,0.6-1.6,1.2C76.1,79.7,76.1,80.4,76.3,81.4z"/>
			<path fill="#80C142" d="M85.4,82.9l-0.8,0.2l-1.7-7l3.9-1l0.2,0.7l-3.1,0.8l0.6,2.6l2.9-0.7l0.2,0.7l-2.9,0.7L85.4,82.9z"/>
		</g>
		<g>
			<path fill="#80C142" d="M36.8,122.1l-1.1-1.3l1.1-3.3l-0.8-0.2l-2,1.6l-1-1.2l5.5-4.4l1,1.2l-2.5,2l1-0.1l3.1,0l1.1,1.3l-4,0
				L36.8,122.1z"/>
			<path fill="#80C142" d="M41.2,126.4l-3-2.9l4.9-5.1l3,2.9l-0.9,0.9l-1.9-1.8l-1.1,1.1l1.7,1.7l-0.9,0.9l-1.7-1.7l-1.3,1.3
				l1.9,1.8L41.2,126.4z"/>
			<path fill="#80C142" d="M46.2,130.5l-3.3-2.5l4.3-5.6l3.3,2.5l-0.8,1l-2.1-1.6l-1,1.2l1.9,1.5l-0.8,1l-1.9-1.5l-1.1,1.4l2.1,1.6
				L46.2,130.5z"/>
			<path fill="#80C142" d="M54.9,130.3c-0.4,0.6-0.9,1-1.5,1.1c-0.6,0.1-1.3-0.1-2.1-0.6l-0.6-0.3l-1.3,2.1l-1.3-0.8l3.7-6l2,1.2
				c0.7,0.5,1.2,1,1.4,1.5C55.4,129.1,55.3,129.7,54.9,130.3z M51.4,129.4l0.4,0.3c0.4,0.2,0.7,0.4,1,0.3c0.3,0,0.5-0.2,0.7-0.5
				c0.2-0.3,0.2-0.6,0.2-0.8c-0.1-0.2-0.3-0.5-0.7-0.7l-0.6-0.4L51.4,129.4z"/>
			<path fill="#80C142" d="M60.4,133.6l2.5-2.1l1.5,0.6l-3.8,3.1l-1,2.5l-1.4-0.6l1-2.5l-0.6-4.9l1.5,0.6L60.4,133.6z"/>
			<path fill="#80C142" d="M71,137.5c-0.3,1.1-0.8,1.9-1.5,2.4c-0.7,0.5-1.6,0.6-2.7,0.3c-1.1-0.3-1.8-0.8-2.2-1.5
				c-0.4-0.8-0.5-1.7-0.2-2.8c0.3-1.1,0.8-1.9,1.5-2.4c0.7-0.5,1.6-0.5,2.7-0.3c1.1,0.3,1.8,0.8,2.2,1.5
				C71.3,135.4,71.3,136.4,71,137.5z M65.9,136.2c-0.2,0.8-0.2,1.4,0,1.8s0.6,0.8,1.2,0.9c1.2,0.3,2-0.3,2.4-1.9
				c0.4-1.5,0-2.5-1.2-2.8c-0.6-0.1-1.1-0.1-1.5,0.2C66.4,134.9,66.1,135.4,65.9,136.2z"/>
			<path fill="#80C142" d="M79.6,134.9l-0.4,4.5c0,0.5-0.2,1-0.5,1.3c-0.3,0.4-0.6,0.6-1.1,0.8c-0.5,0.2-1,0.2-1.6,0.2
				c-0.9-0.1-1.6-0.4-2.1-0.9c-0.5-0.5-0.7-1.2-0.6-2l0.4-4.5l1.5,0.1l-0.4,4.3c0,0.5,0,1,0.2,1.2c0.2,0.3,0.6,0.4,1.1,0.5
				c0.5,0,0.9,0,1.1-0.3s0.4-0.6,0.4-1.2l0.4-4.3L79.6,134.9z"/>
			<path fill="#80C142" d="M83.4,139.2l0.1,2.7L82,142l-0.3-7.1l2.1-0.1c1,0,1.7,0.1,2.2,0.4c0.5,0.3,0.7,0.8,0.8,1.6
				c0,0.4-0.1,0.8-0.3,1.1c-0.2,0.3-0.5,0.6-1,0.8c1.2,1.5,1.9,2.5,2.3,3l-1.7,0.1l-1.8-2.6L83.4,139.2z M83.3,138l0.5,0
				c0.5,0,0.8-0.1,1.1-0.3c0.2-0.2,0.3-0.4,0.3-0.8c0-0.3-0.1-0.6-0.4-0.7c-0.2-0.1-0.6-0.2-1.1-0.2l-0.5,0L83.3,138z"/>
			<path fill="#80C142" d="M97.4,136.2c0.3,1.1,0.1,2.1-0.4,2.8c-0.5,0.8-1.4,1.3-2.6,1.6l-2,0.5l-1.6-6.9l2.2-0.5
				c1.1-0.3,2.1-0.2,2.9,0.3C96.6,134.3,97.1,135.1,97.4,136.2z M95.8,136.6c-0.3-1.5-1.2-2.1-2.5-1.8l-0.8,0.2l1,4.5l0.6-0.1
				C95.6,139,96.2,138.1,95.8,136.6z"/>
			<path fill="#80C142" d="M104.9,137.2l-1.1-1.4l-2.4,0.9l0.1,1.8l-1.5,0.6l-0.2-7.5l1.7-0.7l4.9,5.7L104.9,137.2z M103.1,134.8
				c-1-1.2-1.6-2-1.7-2.1c-0.1-0.2-0.2-0.3-0.3-0.4c0,0.4,0.1,1.5,0.2,3.2L103.1,134.8z"/>
			<path fill="#80C142" d="M110.7,134.4l-1.3,0.7l-2.7-5.1l-1.7,0.9l-0.6-1.1l4.8-2.6l0.6,1.1l-1.7,0.9L110.7,134.4z"/>
			<path fill="#80C142" d="M117.9,129.8l-1.4-1.1l-2.1,1.5l0.5,1.7l-1.3,0.9l-2-7.3l1.5-1.1l6.2,4.3L117.9,129.8z M115.4,127.9
				c-1.3-1-2-1.5-2.2-1.6c-0.2-0.1-0.3-0.2-0.4-0.3c0.1,0.4,0.5,1.4,1,3L115.4,127.9z"/>
			<path fill="#80C142" d="M124.2,121.6c0.4,0.5,0.6,1,0.6,1.6c-0.1,0.6-0.4,1.2-1,1.8c-0.5,0.5-1.1,0.9-1.8,1.1l-1-1
				c0.5-0.2,0.9-0.4,1.2-0.5c0.3-0.2,0.5-0.4,0.7-0.6c0.2-0.2,0.4-0.5,0.4-0.7c0-0.2,0-0.4-0.2-0.6c-0.1-0.1-0.2-0.2-0.3-0.2
				c-0.1,0-0.3,0-0.5,0c-0.2,0-0.5,0.1-1,0.3c-0.5,0.2-0.8,0.3-1.1,0.3c-0.3,0-0.6,0-0.8-0.1c-0.3-0.1-0.5-0.2-0.7-0.5
				c-0.4-0.4-0.6-0.9-0.6-1.5c0.1-0.6,0.4-1.1,0.9-1.6c0.3-0.3,0.6-0.5,0.9-0.7c0.3-0.2,0.6-0.3,1-0.5l0.5,1.2
				c-0.4,0.2-0.7,0.3-0.9,0.4c-0.2,0.1-0.4,0.3-0.6,0.5c-0.2,0.2-0.3,0.4-0.3,0.6c0,0.2,0,0.4,0.2,0.5c0.1,0.1,0.2,0.2,0.3,0.2
				c0.1,0,0.3,0,0.4,0c0.2,0,0.5-0.1,1-0.3c0.7-0.2,1.3-0.3,1.7-0.3C123.5,121,123.8,121.2,124.2,121.6z"/>
			<path fill="#80C142" d="M129.5,118.2l-2.6,3.2l-5.4-4.5l2.6-3.2l0.9,0.8l-1.7,2l1.2,1l1.6-1.9l0.9,0.8l-1.6,1.9l1.4,1.2l1.7-2
				L129.5,118.2z"/>
			<path fill="#80C142" d="M127.7,110.5c-0.3,0.5-0.4,1-0.2,1.5c0.2,0.5,0.6,0.9,1.2,1.4c1.3,0.9,2.3,0.8,3-0.2
				c0.3-0.4,0.5-1,0.7-1.7l1.1,0.7c-0.1,0.6-0.4,1.2-0.8,1.9c-0.6,0.9-1.3,1.4-2.1,1.5c-0.8,0.1-1.7-0.1-2.7-0.8
				c-0.6-0.4-1.1-0.9-1.4-1.4c-0.3-0.5-0.5-1.1-0.4-1.7c0-0.6,0.2-1.2,0.6-1.7c0.4-0.6,0.9-1.1,1.6-1.5l0.8,1.1
				c-0.3,0.2-0.5,0.3-0.7,0.5C128,110,127.8,110.2,127.7,110.5z"/>
			<path fill="#80C142" d="M131.1,101.4l4.1,1.9c0.5,0.2,0.8,0.5,1.1,0.9c0.3,0.4,0.4,0.8,0.4,1.3c0,0.5-0.1,1-0.4,1.6
				c-0.4,0.8-0.9,1.4-1.5,1.7c-0.6,0.3-1.3,0.2-2.1-0.1l-4.1-1.9l0.6-1.4l3.9,1.8c0.5,0.2,0.9,0.3,1.2,0.2c0.3-0.1,0.6-0.4,0.8-0.8
				c0.2-0.5,0.2-0.8,0.1-1.1c-0.1-0.3-0.5-0.6-0.9-0.8l-3.9-1.8L131.1,101.4z"/>
			<path fill="#80C142" d="M136.4,99.2l2.6,0.8l-0.4,1.5l-6.8-2.1l0.6-2c0.3-0.9,0.7-1.6,1.1-1.9c0.5-0.3,1-0.4,1.7-0.2
				c0.4,0.1,0.7,0.3,1,0.7c0.2,0.3,0.4,0.7,0.4,1.2c1.8-0.6,3-1,3.6-1.1l-0.5,1.6l-3.1,0.9L136.4,99.2z M135.2,98.9l0.1-0.5
				c0.1-0.5,0.2-0.8,0.1-1.1c-0.1-0.3-0.3-0.4-0.6-0.5c-0.3-0.1-0.6-0.1-0.8,0.1c-0.2,0.2-0.4,0.5-0.5,1l-0.1,0.4L135.2,98.9z"/>
			<path fill="#80C142" d="M141.3,90l-0.7,4.1l-6.9-1.2l0.7-4.1l1.2,0.2l-0.5,2.6l1.5,0.3l0.4-2.4l1.2,0.2l-0.4,2.4l1.8,0.3l0.5-2.6
				L141.3,90z"/>
		</g>
	</g>
</g>
</svg>
